<svg width="280" height="100" viewBox="0 0 280 100" fill="none" xmlns="http://www.w3.org/2000/svg">
<rect width="280" height="100" rx="20" fill="#333333"/>
<path d="M40 30.6431V68.4318C40.0003 68.5138 40.0247 68.5939 40.0703 68.662C40.1159 68.7301 40.1806 68.7833 40.2562 68.8148C40.3319 68.8464 40.4152 68.8548 40.4957 68.8392C40.5762 68.8236 40.6503 68.7845 40.7087 68.727L60.3847 49.5384L40.7087 30.3479C40.6503 30.2903 40.5762 30.2513 40.4957 30.2357C40.4152 30.22 40.3319 30.2285 40.2562 30.26C40.1806 30.2916 40.1159 30.3447 40.0703 30.4129C40.0247 30.481 40.0003 30.5611 40 30.6431Z" fill="white"/>
<path d="M68.6348 41.6542L43.9635 28.0618L43.9481 28.0532C43.5231 27.8224 43.1193 28.3974 43.4674 28.732L62.8069 47.2244L68.6348 41.6542Z" fill="white"/>
<path d="M43.4692 70.3452C43.1192 70.6798 43.5231 71.2548 43.95 71.024L43.9654 71.0154L68.6348 57.423L62.8068 51.8508L43.4692 70.3452Z" fill="white"/>
<path d="M78.5944 47.1346L71.705 43.3403L65.2271 49.5384L71.705 55.7337L78.5944 51.9423C80.4685 50.9067 80.4685 48.1702 78.5944 47.1346Z" fill="white"/>
<path d="M120.08 25.08C119.76 24.344 119.269 23.768 118.608 23.352C117.957 22.9253 117.189 22.712 116.304 22.712C115.472 22.712 114.725 22.904 114.064 23.288C113.403 23.672 112.88 24.2213 112.496 24.936C112.112 25.64 111.92 26.4613 111.92 27.4C111.92 28.3387 112.112 29.1653 112.496 29.88C112.88 30.5947 113.403 31.144 114.064 31.528C114.725 31.912 115.472 32.104 116.304 32.104C117.083 32.104 117.781 31.9387 118.4 31.608C119.029 31.2667 119.531 30.7867 119.904 30.168C120.288 29.5387 120.507 28.808 120.56 27.976H115.856V27.064H121.744V27.88C121.691 28.8613 121.424 29.752 120.944 30.552C120.464 31.3413 119.819 31.9653 119.008 32.424C118.208 32.8827 117.307 33.112 116.304 33.112C115.269 33.112 114.331 32.872 113.488 32.392C112.645 31.9013 111.979 31.224 111.488 30.36C111.008 29.4853 110.768 28.4987 110.768 27.4C110.768 26.3013 111.008 25.32 111.488 24.456C111.979 23.5813 112.645 22.904 113.488 22.424C114.331 21.9333 115.269 21.688 116.304 21.688C117.499 21.688 118.544 21.9867 119.44 22.584C120.336 23.1813 120.987 24.0133 121.392 25.08H120.08ZM131.7 28.184C131.7 28.568 131.689 28.8613 131.668 29.064H124.42C124.452 29.7253 124.612 30.2907 124.9 30.76C125.188 31.2293 125.566 31.5867 126.036 31.832C126.505 32.0667 127.017 32.184 127.572 32.184C128.297 32.184 128.905 32.008 129.396 31.656C129.897 31.304 130.228 30.8293 130.388 30.232H131.572C131.358 31.0853 130.9 31.784 130.196 32.328C129.502 32.8613 128.628 33.128 127.572 33.128C126.75 33.128 126.014 32.9467 125.364 32.584C124.713 32.2107 124.201 31.688 123.828 31.016C123.465 30.3333 123.284 29.5387 123.284 28.632C123.284 27.7253 123.465 26.9307 123.828 26.248C124.19 25.5653 124.697 25.0427 125.348 24.68C125.998 24.3173 126.74 24.136 127.572 24.136C128.404 24.136 129.129 24.3173 129.748 24.68C130.377 25.0427 130.857 25.5333 131.188 26.152C131.529 26.76 131.7 27.4373 131.7 28.184ZM130.564 28.152C130.574 27.5013 130.441 26.9467 130.164 26.488C129.897 26.0293 129.529 25.6827 129.06 25.448C128.59 25.2133 128.078 25.096 127.524 25.096C126.692 25.096 125.982 25.3627 125.396 25.896C124.809 26.4293 124.484 27.1813 124.42 28.152H130.564ZM135.205 25.208V30.632C135.205 31.1653 135.306 31.5333 135.509 31.736C135.711 31.9387 136.069 32.04 136.581 32.04H137.605V33H136.405C135.615 33 135.029 32.8187 134.645 32.456C134.261 32.0827 134.069 31.4747 134.069 30.632V25.208H132.853V24.264H134.069V22.072H135.205V24.264H137.605V25.208H135.205ZM144.403 22.616C144.179 22.616 143.987 22.536 143.827 22.376C143.667 22.216 143.587 22.0187 143.587 21.784C143.587 21.5493 143.667 21.3573 143.827 21.208C143.987 21.048 144.179 20.968 144.403 20.968C144.627 20.968 144.819 21.048 144.979 21.208C145.139 21.3573 145.219 21.5493 145.219 21.784C145.219 22.0187 145.139 22.216 144.979 22.376C144.819 22.536 144.627 22.616 144.403 22.616ZM144.963 24.264V33H143.843V24.264H144.963ZM148.955 25.208V30.632C148.955 31.1653 149.056 31.5333 149.259 31.736C149.461 31.9387 149.819 32.04 150.331 32.04H151.355V33H150.155C149.365 33 148.779 32.8187 148.395 32.456C148.011 32.0827 147.819 31.4747 147.819 30.632V25.208H146.603V24.264H147.819V22.072H148.955V24.264H151.355V25.208H148.955ZM161.417 33.128C160.595 33.128 159.854 32.9467 159.193 32.584C158.542 32.2107 158.025 31.688 157.641 31.016C157.267 30.3333 157.081 29.5387 157.081 28.632C157.081 27.7253 157.273 26.936 157.657 26.264C158.041 25.5813 158.563 25.0587 159.225 24.696C159.886 24.3227 160.627 24.136 161.449 24.136C162.27 24.136 163.011 24.3227 163.673 24.696C164.345 25.0587 164.867 25.5813 165.241 26.264C165.625 26.936 165.817 27.7253 165.817 28.632C165.817 29.528 165.625 30.3173 165.241 31C164.857 31.6827 164.329 32.2107 163.657 32.584C162.985 32.9467 162.238 33.128 161.417 33.128ZM161.417 32.152C161.993 32.152 162.526 32.024 163.017 31.768C163.507 31.5013 163.902 31.1067 164.201 30.584C164.51 30.0507 164.665 29.4 164.665 28.632C164.665 27.864 164.515 27.2187 164.217 26.696C163.918 26.1627 163.523 25.768 163.033 25.512C162.542 25.2453 162.009 25.112 161.433 25.112C160.857 25.112 160.323 25.2453 159.833 25.512C159.342 25.768 158.947 26.1627 158.649 26.696C158.361 27.2187 158.217 27.864 158.217 28.632C158.217 29.4 158.361 30.0507 158.649 30.584C158.947 31.1067 159.337 31.5013 159.817 31.768C160.307 32.024 160.841 32.152 161.417 32.152ZM171.954 24.104C172.999 24.104 173.853 24.4293 174.514 25.08C175.175 25.72 175.506 26.6533 175.506 27.88V33H174.402V28.008C174.402 27.0587 174.162 26.3333 173.682 25.832C173.213 25.3307 172.567 25.08 171.746 25.08C170.903 25.08 170.231 25.3467 169.73 25.88C169.229 26.4133 168.978 27.1973 168.978 28.232V33H167.858V24.264H168.978V25.752C169.255 25.2187 169.655 24.8133 170.178 24.536C170.701 24.248 171.293 24.104 171.954 24.104Z" fill="white"/>
<path d="M122.672 63.48C122.368 62.92 121.928 62.496 121.352 62.208C120.792 61.904 120.128 61.752 119.36 61.752C118.032 61.752 116.968 62.192 116.168 63.072C115.368 63.936 114.968 65.096 114.968 66.552C114.968 68.104 115.384 69.32 116.216 70.2C117.064 71.064 118.224 71.496 119.696 71.496C120.704 71.496 121.552 71.24 122.24 70.728C122.944 70.216 123.456 69.48 123.776 68.52H118.568V65.496H127.496V69.312C127.192 70.336 126.672 71.288 125.936 72.168C125.216 73.048 124.296 73.76 123.176 74.304C122.056 74.848 120.792 75.12 119.384 75.12C117.72 75.12 116.232 74.76 114.92 74.04C113.624 73.304 112.608 72.288 111.872 70.992C111.152 69.696 110.792 68.216 110.792 66.552C110.792 64.888 111.152 63.408 111.872 62.112C112.608 60.8 113.624 59.784 114.92 59.064C116.216 58.328 117.696 57.96 119.36 57.96C121.376 57.96 123.072 58.448 124.448 59.424C125.84 60.4 126.76 61.752 127.208 63.48H122.672ZM135.865 75.192C134.553 75.192 133.369 74.912 132.313 74.352C131.273 73.792 130.449 72.992 129.841 71.952C129.249 70.912 128.953 69.696 128.953 68.304C128.953 66.928 129.257 65.72 129.865 64.68C130.473 63.624 131.305 62.816 132.361 62.256C133.417 61.696 134.601 61.416 135.913 61.416C137.225 61.416 138.409 61.696 139.465 62.256C140.521 62.816 141.353 63.624 141.961 64.68C142.569 65.72 142.873 66.928 142.873 68.304C142.873 69.68 142.561 70.896 141.937 71.952C141.329 72.992 140.489 73.792 139.417 74.352C138.361 74.912 137.177 75.192 135.865 75.192ZM135.865 71.64C136.649 71.64 137.313 71.352 137.857 70.776C138.417 70.2 138.697 69.376 138.697 68.304C138.697 67.232 138.425 66.408 137.881 65.832C137.353 65.256 136.697 64.968 135.913 64.968C135.113 64.968 134.449 65.256 133.921 65.832C133.393 66.392 133.129 67.216 133.129 68.304C133.129 69.376 133.385 70.2 133.897 70.776C134.425 71.352 135.081 71.64 135.865 71.64ZM151.147 75.192C149.835 75.192 148.651 74.912 147.595 74.352C146.555 73.792 145.731 72.992 145.123 71.952C144.531 70.912 144.235 69.696 144.235 68.304C144.235 66.928 144.539 65.72 145.146 64.68C145.755 63.624 146.587 62.816 147.643 62.256C148.699 61.696 149.883 61.416 151.195 61.416C152.507 61.416 153.691 61.696 154.747 62.256C155.803 62.816 156.635 63.624 157.243 64.68C157.851 65.72 158.155 66.928 158.155 68.304C158.155 69.68 157.843 70.896 157.219 71.952C156.611 72.992 155.771 73.792 154.699 74.352C153.643 74.912 152.459 75.192 151.147 75.192ZM151.147 71.64C151.931 71.64 152.595 71.352 153.139 70.776C153.699 70.2 153.979 69.376 153.979 68.304C153.979 67.232 153.707 66.408 153.163 65.832C152.635 65.256 151.979 64.968 151.195 64.968C150.395 64.968 149.731 65.256 149.203 65.832C148.675 66.392 148.411 67.216 148.411 68.304C148.411 69.376 148.667 70.2 149.179 70.776C149.707 71.352 150.363 71.64 151.147 71.64ZM165.42 61.416C166.364 61.416 167.188 61.608 167.892 61.992C168.612 62.376 169.164 62.88 169.548 63.504V61.608H173.652V74.976C173.652 76.208 173.404 77.32 172.908 78.312C172.428 79.32 171.684 80.12 170.676 80.712C169.684 81.304 168.444 81.6 166.956 81.6C164.972 81.6 163.364 81.128 162.132 80.184C160.9 79.256 160.196 77.992 160.02 76.392H164.076C164.204 76.904 164.508 77.304 164.988 77.592C165.468 77.896 166.06 78.048 166.764 78.048C167.612 78.048 168.284 77.8 168.78 77.304C169.292 76.824 169.548 76.048 169.548 74.976V73.08C169.148 73.704 168.596 74.216 167.892 74.616C167.188 75 166.364 75.192 165.42 75.192C164.316 75.192 163.316 74.912 162.42 74.352C161.524 73.776 160.812 72.968 160.284 71.928C159.772 70.872 159.516 69.656 159.516 68.28C159.516 66.904 159.772 65.696 160.284 64.656C160.812 63.616 161.524 62.816 162.42 62.256C163.316 61.696 164.316 61.416 165.42 61.416ZM169.548 68.304C169.548 67.28 169.26 66.472 168.684 65.88C168.124 65.288 167.436 64.992 166.62 64.992C165.804 64.992 165.108 65.288 164.532 65.88C163.972 66.456 163.692 67.256 163.692 68.28C163.692 69.304 163.972 70.12 164.532 70.728C165.108 71.32 165.804 71.616 166.62 71.616C167.436 71.616 168.124 71.32 168.684 70.728C169.26 70.136 169.548 69.328 169.548 68.304ZM180.725 57.24V75H176.621V57.24H180.725ZM196.323 68.088C196.323 68.472 196.299 68.872 196.251 69.288H186.963C187.027 70.12 187.291 70.76 187.755 71.208C188.235 71.64 188.819 71.856 189.507 71.856C190.531 71.856 191.243 71.424 191.643 70.56H196.011C195.787 71.44 195.379 72.232 194.787 72.936C194.211 73.64 193.483 74.192 192.603 74.592C191.723 74.992 190.739 75.192 189.651 75.192C188.339 75.192 187.171 74.912 186.147 74.352C185.123 73.792 184.323 72.992 183.747 71.952C183.171 70.912 182.883 69.696 182.883 68.304C182.883 66.912 183.163 65.696 183.723 64.656C184.299 63.616 185.099 62.816 186.123 62.256C187.147 61.696 188.323 61.416 189.651 61.416C190.947 61.416 192.099 61.688 193.107 62.232C194.115 62.776 194.899 63.552 195.459 64.56C196.035 65.568 196.323 66.744 196.323 68.088ZM192.123 67.008C192.123 66.304 191.883 65.744 191.403 65.328C190.923 64.912 190.323 64.704 189.603 64.704C188.915 64.704 188.331 64.904 187.851 65.304C187.387 65.704 187.099 66.272 186.987 67.008H192.123ZM207.678 63.504C208.078 62.88 208.63 62.376 209.334 61.992C210.038 61.608 210.862 61.416 211.806 61.416C212.91 61.416 213.91 61.696 214.806 62.256C215.702 62.816 216.406 63.616 216.918 64.656C217.446 65.696 217.71 66.904 217.71 68.28C217.71 69.656 217.446 70.872 216.918 71.928C216.406 72.968 215.702 73.776 214.806 74.352C213.91 74.912 212.91 75.192 211.806 75.192C210.878 75.192 210.054 75 209.334 74.616C208.63 74.232 208.078 73.736 207.678 73.128V81.384H203.574V61.608H207.678V63.504ZM213.534 68.28C213.534 67.256 213.246 66.456 212.67 65.88C212.11 65.288 211.414 64.992 210.582 64.992C209.766 64.992 209.07 65.288 208.494 65.88C207.934 66.472 207.654 67.28 207.654 68.304C207.654 69.328 207.934 70.136 208.494 70.728C209.07 71.32 209.766 71.616 210.582 71.616C211.398 71.616 212.094 71.32 212.67 70.728C213.246 70.12 213.534 69.304 213.534 68.28ZM223.967 57.24V75H219.863V57.24H223.967ZM226.125 68.28C226.125 66.904 226.381 65.696 226.893 64.656C227.421 63.616 228.133 62.816 229.029 62.256C229.925 61.696 230.925 61.416 232.029 61.416C232.973 61.416 233.797 61.608 234.501 61.992C235.221 62.376 235.773 62.88 236.157 63.504V61.608H240.261V75H236.157V73.104C235.757 73.728 235.197 74.232 234.477 74.616C233.773 75 232.949 75.192 232.005 75.192C230.917 75.192 229.925 74.912 229.029 74.352C228.133 73.776 227.421 72.968 226.893 71.928C226.381 70.872 226.125 69.656 226.125 68.28ZM236.157 68.304C236.157 67.28 235.869 66.472 235.293 65.88C234.733 65.288 234.045 64.992 233.229 64.992C232.413 64.992 231.717 65.288 231.141 65.88C230.581 66.456 230.301 67.256 230.301 68.28C230.301 69.304 230.581 70.12 231.141 70.728C231.717 71.32 232.413 71.616 233.229 71.616C234.045 71.616 234.733 71.32 235.293 70.728C235.869 70.136 236.157 69.328 236.157 68.304ZM256.91 61.608L248.51 81.36H244.094L247.166 74.544L241.718 61.608H246.302L249.398 69.984L252.47 61.608H256.91Z" fill="white"/>
</svg>
