<svg width="626" height="644" viewBox="0 0 626 644" fill="none" xmlns="http://www.w3.org/2000/svg">
<path d="M468.776 482.527C555.075 393.696 555.075 249.673 468.776 160.842C382.477 72.0115 242.558 72.0115 156.259 160.842C69.9594 249.673 69.9594 393.696 156.259 482.527C242.558 571.357 382.477 571.357 468.776 482.527Z" fill="#DCEDF9"/>
<path d="M491.758 179.47C496.454 180.448 503.104 179.14 506.275 179.002C514.785 178.63 523.295 178.396 531.805 178.272C548.824 178.038 565.857 178.286 582.863 179.043C586.235 179.195 590.115 179.14 592.282 176.496C594.263 174.085 593.848 170.146 591.694 167.901C589.54 165.657 586.074 165.078 583.144 166.042C580.628 162.475 576.494 157.421 572.507 155.795C568.519 154.156 562.993 155.74 561.883 159.996C559.113 153.055 553.199 147.064 545.974 146.113C538.749 145.163 530.788 150.603 530.319 158.095C527.683 155.658 523.683 154.942 520.405 156.319C517.127 157.696 514.745 161.098 514.518 164.734C514.745 161.015 503.225 162.916 501.766 163.66C499.866 164.624 498.582 166.304 496.869 166.717C494.3 167.337 491.838 164.872 489.095 167.364C487.905 168.452 487.356 170.091 486.981 171.689C486.633 173.163 486.393 174.746 486.955 176.137C487.731 178.011 489.524 179.002 491.758 179.47Z" fill="#DCEDF9"/>
<path d="M79.8659 294.65C84.5623 295.628 91.2122 294.32 94.3833 294.182C102.893 293.81 111.403 293.576 119.912 293.452C136.932 293.218 153.965 293.466 170.971 294.223C174.343 294.375 178.223 294.32 180.39 291.675C182.371 289.265 181.956 285.326 179.802 283.081C177.647 280.836 174.182 280.258 171.252 281.222C168.736 277.655 164.602 272.6 160.615 270.975C156.627 269.336 151.101 270.92 149.991 275.176C147.221 268.235 141.307 262.243 134.082 261.293C126.857 260.343 118.896 265.783 118.427 273.275C115.791 270.838 111.791 270.121 108.513 271.499C105.235 272.876 102.853 276.278 102.625 279.914C102.853 276.195 91.3326 278.096 89.8742 278.839C87.9742 279.803 86.6898 281.484 84.9771 281.897C82.4081 282.517 79.9462 280.051 77.2033 282.544C76.0125 283.632 75.4639 285.271 75.0892 286.869C74.7414 288.342 74.5005 289.926 75.0625 291.317C75.8385 293.19 77.6315 294.182 79.8659 294.65Z" fill="#C5D9ED"/>
<path d="M474.698 482.77C477.267 478.872 479.796 474.809 480.84 470.223C481.883 465.637 481.188 460.362 477.976 457.001C472.852 451.644 463.579 453.462 458.281 458.64C460.917 452.236 463.539 445.832 466.175 439.441C467.62 435.929 469.092 432.155 468.463 428.396C467.821 424.636 464.115 421.165 460.596 422.377C465.747 411.717 469.413 400.3 471.447 388.579C472.945 379.957 473.226 370.083 467.553 363.554C465.854 361.599 463.579 360.029 461.037 359.822C458.401 359.602 455.859 360.827 453.598 362.26C445.637 367.301 439.522 375.027 434.946 383.414C430.37 391.816 427.212 400.933 424.082 410.009C419.733 422.597 415.384 435.185 411.036 447.774C409.711 443.89 404.921 442.058 401.095 443.284C397.281 444.509 394.512 448.09 393.187 451.974C391.849 455.858 391.728 460.059 391.662 464.177C388.986 461.973 384.798 462.662 382.202 464.962C379.606 467.262 378.308 470.774 377.599 474.231C374.736 488.224 380.369 503.373 390.752 512.876C397.562 519.115 406.206 522.972 415.17 524.459C427.707 526.525 440.312 522.311 449.517 513.661C459.218 504.558 467.366 493.884 474.698 482.77Z" fill="white"/>
<path d="M462.897 360.841C462.897 360.841 413.003 467.138 414.863 521.526" stroke="#C5D9ED" stroke-miterlimit="10"/>
<path d="M401.001 445.708C401.001 445.708 404.199 474.823 418.342 488.279" stroke="#C5D9ED" stroke-miterlimit="10"/>
<path d="M381.787 467.95C381.787 467.95 391.929 488.279 415.144 505.852" stroke="#C5D9ED" stroke-miterlimit="10"/>
<path d="M476.237 458.613C476.237 458.613 449.022 495.137 415.398 501.734" stroke="#C5D9ED" stroke-miterlimit="10"/>
<path d="M465.841 425.93C465.841 425.93 446.092 463.557 420.215 476.462" stroke="#C5D9ED" stroke-miterlimit="10"/>
<path d="M81.6188 474.671C78.5013 469.947 75.4238 465.003 74.1527 459.439C72.8816 453.875 73.7246 447.471 77.6315 443.394C83.8533 436.893 95.1059 439.111 101.528 445.391C98.3305 437.623 95.1461 429.855 91.9482 422.088C90.1954 417.818 88.4025 413.246 89.1786 408.687C89.9546 404.115 94.4503 399.914 98.7319 401.374C92.47 388.441 88.0279 374.572 85.5659 360.345C83.7596 349.878 83.4117 337.896 90.3025 329.977C92.363 327.608 95.1327 325.707 98.2101 325.446C101.408 325.17 104.499 326.671 107.228 328.407C116.902 334.522 124.315 343.901 129.854 354.093C135.407 364.284 139.233 375.357 143.033 386.362C148.305 401.636 153.59 416.923 158.862 432.197C160.468 427.473 166.288 425.255 170.917 426.743C175.547 428.23 178.905 432.582 180.524 437.293C182.143 442.003 182.29 447.099 182.371 452.098C185.622 449.412 190.693 450.253 193.851 453.048C197.009 455.844 198.574 460.1 199.43 464.301C202.896 481.282 196.072 499.682 183.468 511.21C175.199 518.771 164.709 523.468 153.831 525.258C138.618 527.778 123.324 522.655 112.152 512.146C100.418 501.115 90.5299 488.168 81.6188 474.671Z" fill="white"/>
<path d="M95.9355 326.685C95.9355 326.685 156.494 455.693 154.233 521.691" stroke="#C5D9ED" stroke-miterlimit="10"/>
<path d="M171.064 429.69C171.064 429.69 167.184 465.031 150.018 481.365" stroke="#C5D9ED" stroke-miterlimit="10"/>
<path d="M194.386 456.698C194.386 456.698 182.076 481.365 153.911 502.699" stroke="#C5D9ED" stroke-miterlimit="10"/>
<path d="M79.7456 445.363C79.7456 445.363 112.781 489.697 153.577 497.699" stroke="#C5D9ED" stroke-miterlimit="10"/>
<path d="M92.3765 405.698C92.3765 405.698 116.34 451.368 147.757 467.028" stroke="#C5D9ED" stroke-miterlimit="10"/>
<path d="M336.482 527.944C316.252 526.897 293.746 526.318 270.024 526.318C246.301 526.318 223.795 526.897 203.565 527.944H110.935V544.181C110.935 554.043 182.157 562.044 270.024 562.044C357.891 562.044 429.113 554.043 429.113 544.181V527.944H336.482Z" fill="url(#paint0_linear)"/>
<path d="M270.024 545.807C357.886 545.807 429.113 537.809 429.113 527.944C429.113 518.078 357.886 510.081 270.024 510.081C182.161 510.081 110.935 518.078 110.935 527.944C110.935 537.809 182.161 545.807 270.024 545.807Z" fill="url(#paint1_linear)"/>
<path d="M122.027 440.295V526.318C122.027 534.004 188.405 540.229 270.291 540.229C352.177 540.229 418.556 534.004 418.556 526.318V440.295H122.027Z" fill="url(#paint2_linear)"/>
<path d="M383.192 449.261C353.034 451.299 312.934 452.429 270.291 452.429C227.649 452.429 187.535 451.299 157.39 449.261C139.662 448.063 128.757 446.768 122.04 445.625V447.016C129.011 448.201 139.996 449.454 157.31 450.624C187.495 452.663 227.622 453.792 270.305 453.792C312.987 453.792 353.114 452.663 383.299 450.624C390.578 450.129 407.089 449.013 418.569 447.016V445.625C411.826 446.768 400.921 448.063 383.192 449.261Z" fill="url(#paint3_linear)"/>
<path d="M418.556 440.295C418.556 444.096 352.177 447.181 270.291 447.181C188.405 447.181 122.027 444.096 122.027 440.295C122.027 436.494 188.405 433.409 270.291 433.409C352.177 433.409 418.556 436.494 418.556 440.295Z" fill="url(#paint4_linear)"/>
<path opacity="0.2" d="M156.976 445.611V535.202C156.976 535.202 180.07 538.493 185.756 537.763V446.341L156.976 445.611Z" fill="url(#paint5_linear)"/>
<path d="M115.27 532.089C117.705 533.439 120.448 534.059 123.11 534.747C125.786 535.422 128.516 535.89 131.232 536.441C136.678 537.405 142.15 538.204 147.636 538.838C153.108 539.568 158.621 540.077 164.12 540.656C169.633 541.069 175.132 541.675 180.645 542.033C186.157 542.432 191.67 542.859 197.196 543.149C202.722 543.465 208.234 543.837 213.76 544.085C224.799 544.677 235.851 545.132 246.903 545.641L230.311 545.38C224.785 545.325 219.259 545.049 213.72 544.884C208.194 544.719 202.668 544.457 197.142 544.154C191.616 543.892 186.09 543.493 180.578 543.121C175.052 542.79 169.539 542.24 164.027 541.744C158.527 541.138 153.015 540.573 147.529 539.802C142.043 539.072 136.571 538.122 131.138 537.047C128.422 536.469 125.719 535.835 123.057 535.064C120.381 534.265 117.665 533.535 115.27 532.089Z" fill="url(#paint6_linear)"/>
<path d="M163.358 445.047C173.38 445.143 183.415 445.322 193.436 445.501L223.501 446.08L253.566 446.644L268.606 446.892L276.125 446.989L283.645 447.03C273.623 447.595 263.588 447.663 253.566 447.718C243.545 447.691 233.51 447.608 223.488 447.36C213.466 447.085 203.445 446.878 193.423 446.451C183.388 446.093 173.366 445.653 163.358 445.047Z" fill="url(#paint7_linear)"/>
<path d="M533.383 489.573C569.164 489.573 598.17 487.884 598.17 485.8C598.17 483.715 569.164 482.026 533.383 482.026C497.603 482.026 468.597 483.715 468.597 485.8C468.597 487.884 497.603 489.573 533.383 489.573Z" fill="#C5D9ED"/>
<path d="M345.728 370.055L355.991 369.394C355.991 369.394 455.15 417.295 479.529 433.478C503.921 449.66 569.697 486.984 583.184 486.654C596.658 486.323 608.861 467.496 590.891 454.288C572.922 441.08 481.148 399.129 458.04 386.238C434.933 373.36 375.245 344.948 372.047 338.337C368.836 331.726 361.463 317.196 347.334 317.857C333.218 318.532 329.364 366.419 345.728 370.055Z" fill="url(#paint8_linear)"/>
<path d="M345.661 370.11L355.924 369.449C355.924 369.449 455.083 417.35 479.462 433.533C503.854 449.715 569.63 487.039 583.117 486.709C596.591 486.378 608.794 467.551 590.824 454.343C572.855 441.135 481.081 399.184 457.974 386.293C434.866 373.416 375.178 345.003 371.98 338.392C368.769 331.781 361.396 317.251 347.267 317.912C333.151 318.573 329.297 366.474 345.661 370.11Z" fill="url(#paint9_linear)"/>
<path d="M345.661 370.11L355.924 369.449C355.924 369.449 455.084 417.35 479.462 433.533C503.854 449.715 569.63 487.039 583.118 486.709C590.022 486.543 596.591 481.503 598.933 474.864C551.3 478.858 478.633 428.244 454.241 412.778C427.748 395.961 363.497 362.342 363.497 362.342C369.304 352.261 360.955 329.467 360.955 329.467C356.767 323.077 346.357 337.359 335.8 355.814C337.205 363.127 340.376 368.926 345.661 370.11Z" fill="url(#paint10_linear)"/>
<path d="M353.248 318.298C353.248 318.298 362.44 327.071 362.212 339.769C361.985 352.467 356.606 364.009 344.27 366.777C331.947 369.532 353.248 318.298 353.248 318.298Z" fill="#422816"/>
<path d="M316.319 438.174C316.319 440.254 287.311 441.948 251.532 441.948C215.754 441.948 186.746 440.254 186.746 438.174C186.746 436.094 215.754 434.4 251.532 434.4C287.311 434.414 316.319 436.094 316.319 438.174Z" fill="url(#paint11_linear)"/>
<path d="M210.108 405.051C210.108 405.051 197.785 399.115 200.675 385.246C203.565 371.377 232.118 208.2 232.118 208.2C232.118 208.2 236.293 199.936 247.197 195.984C247.197 195.984 246.234 177.157 309.134 187.059C309.134 187.059 354.064 195.323 357.904 215.472C357.904 215.472 370.415 225.374 367.846 240.91C365.277 256.431 342.169 412.337 342.169 412.337C342.169 412.337 340.764 421.592 328.896 424.897C328.896 424.897 332.549 444.702 268.044 436.453C203.578 428.189 210.108 405.051 210.108 405.051Z" fill="url(#paint12_linear)"/>
<path d="M267.24 403.261C216.597 394.97 210.108 405.065 210.108 405.065C210.108 405.065 203.578 428.189 268.07 436.453C332.575 444.716 328.923 424.897 328.923 424.897C328.923 424.897 317.884 411.552 267.24 403.261Z" fill="#5E3D24"/>
<path d="M309.147 187.073C246.247 177.17 247.211 195.998 247.211 195.998C247.211 195.998 301.119 174.196 357.918 215.486C354.077 195.323 309.147 187.073 309.147 187.073Z" fill="#5E3D24"/>
<path d="M221.574 268.345C221.574 268.345 229.629 246.006 296.65 258.952C363.671 271.898 359.697 294.003 359.697 294.003L350.291 357.797C350.291 357.797 334.395 333.282 279.136 327.649C223.876 322.016 215.393 329.371 209.92 334.164L221.574 268.345Z" fill="url(#paint13_linear)"/>
<path d="M266.893 410.106C222.27 403.412 212.878 408.728 210.938 411.689C213.988 419.182 225.709 431.012 268.07 436.439C311.248 441.962 323.879 434.924 327.518 429.649C324.427 425.944 312.452 416.951 266.893 410.106Z" fill="#422816"/>
<path opacity="0.2" d="M251.198 205.377L221.949 384.31C221.949 384.31 221.387 391.843 232.078 394.157H247.264C247.264 394.157 239.945 392.422 241.069 384.888L272.579 200.735C272.579 200.735 258.517 198.421 251.198 205.377Z" fill="url(#paint14_linear)"/>
<path d="M417.7 523.123C417.512 523.44 417.178 523.743 416.71 524.06C416.589 524.156 416.509 524.225 416.509 524.225L416.469 524.211C406.915 529.968 349.555 535.753 270.291 535.753C186.84 535.753 127.673 529.335 123.004 523.302C122.696 523.013 122.361 522.682 122.027 522.283V524.032C129.627 532.557 201.986 537.13 270.291 537.13C338.597 537.13 410.956 532.544 418.556 524.032V522.173C418.262 522.531 417.967 522.848 417.7 523.123Z" fill="#FBB040"/>
<path d="M353.328 249.903L331.452 256.156C331.452 256.156 331.907 262.574 337.981 266.169C337.981 266.169 344.363 288.37 344.216 298.851C344.069 309.332 348.926 317.458 348.926 317.458C348.926 317.458 346.036 336.381 344.216 339.659L346.799 341.532C346.799 341.532 343.909 353.17 349.622 362.342C355.041 325.873 362.065 278.812 365.691 254.972L353.328 249.903Z" fill="#929496"/>
<path d="M370.575 445.639C370.575 445.639 389.788 482.219 379.004 535.601L383.741 541.289L381.372 556.467L396.117 555.654L402.968 484.119L381.118 445.102L370.575 445.639Z" fill="#929496"/>
<path d="M483.61 574.247C483.61 577.759 460.342 580.624 431.655 580.624C402.955 580.624 379.7 577.773 379.7 574.247C379.7 570.735 402.968 567.87 431.655 567.87C460.355 567.87 483.61 570.721 483.61 574.247Z" fill="#C5D9ED"/>
<path d="M392.411 227.399C392.411 227.399 396.8 225.829 401.563 230.14C406.326 234.45 418.716 262.891 421.954 267.601C421.954 267.601 423.854 265.645 425.005 269.364C426.142 273.096 425.768 269.171 427.868 269.171C429.969 269.171 431.494 260.935 436.632 261.527C436.632 261.527 441.583 260.357 443.296 266.43C445.008 272.504 448.822 282.324 444.821 286.635C444.098 287.406 443.309 288.163 442.372 288.659C441.436 289.155 440.713 288.935 439.683 288.838C439.589 288.825 439.496 288.825 439.415 288.852C439.308 288.893 439.241 288.976 439.161 289.059C438.519 289.802 437.81 290.477 437.02 291.042C432.926 293.934 427.601 297.666 422.516 298.025C416.99 298.41 405.176 279.983 400.6 270.755L392.411 227.399Z" fill="#F94D5C"/>
<path d="M422.516 298.011C427.601 297.653 432.926 293.92 437.02 291.028C437.81 290.463 438.532 289.789 439.161 289.045C439.228 288.962 439.308 288.88 439.415 288.838C439.496 288.811 439.589 288.811 439.683 288.825C440.713 288.935 441.422 289.141 442.372 288.645C443.309 288.15 444.098 287.392 444.821 286.621C446.092 285.244 446.574 283.315 446.587 281.126C442.948 282.641 439.308 284.541 435.522 283.784C435.094 283.701 434.665 283.577 434.237 283.591C433.782 283.605 433.354 283.742 432.899 283.784C431.213 283.921 429.728 282.462 429.206 280.809C428.684 279.156 428.912 277.366 429.126 275.644C429.246 274.721 429.367 273.812 429.487 272.89C427.132 274.308 425.259 276.553 424.256 279.156C424.109 279.542 423.961 279.955 423.64 280.217C423.319 280.478 422.77 280.478 422.583 280.12C422.503 279.969 422.503 279.803 422.49 279.638C422.463 278.812 422.436 277.999 422.409 277.173C421.847 277.297 421.272 277.435 420.71 277.559C421.044 276.677 421.138 275.699 421.004 274.763C420.201 274.171 419.278 275.713 418.302 275.562C417.512 275.438 417.311 274.281 417.659 273.537C418.021 272.793 418.703 272.27 419.064 271.526C419.894 269.818 418.797 267.835 417.74 266.265C416.843 264.943 415.947 263.621 415.05 262.299C414.047 260.825 411.598 256.087 412.267 257.754C413.418 260.605 413.913 263.731 413.297 268.097C412.682 272.463 407.678 282.269 407.678 282.269C407.704 282.503 407.731 282.737 407.758 282.971C412.883 290.808 418.984 298.272 422.516 298.011Z" fill="#C42A44"/>
<path d="M443.724 258.222C443.724 258.222 435.027 264.502 435.013 267.394C435 270.287 433.836 273.206 438.559 278.826C443.282 284.445 466.456 248.981 466.456 248.981C466.456 248.981 467.353 244.408 462.991 242.962L443.724 258.222Z" fill="#EEB399"/>
<path d="M446.708 240.634C446.708 240.634 443.563 244.89 443.978 249.463C444.393 254.035 440.646 257.217 440.646 257.217L448.969 256.734C448.969 256.748 449.705 242.769 446.708 240.634Z" fill="#111733"/>
<path d="M446.708 240.634C446.708 240.634 469.507 236.42 484.52 242.246C484.52 242.246 487.048 265.521 483.744 286.387C480.425 307.252 483.543 324.702 483.543 324.702C483.543 324.702 459.954 329.922 445.343 325.101C445.343 325.101 443.978 291.799 446.119 282.971C448.26 274.143 448.26 244.849 446.708 240.634Z" fill="white"/>
<path d="M466.684 254.848C466.671 254.848 466.671 254.848 466.658 254.848C465.828 254.903 463.66 255.454 460.958 256.445C458.228 257.437 455.579 257.754 453.344 258.277C451.137 258.8 451.471 261.514 451.471 261.514C451.471 261.514 452.006 272.49 452.287 274.308C453.666 282.971 465.56 290.243 465.56 290.243C465.56 290.243 478.057 283.866 479.957 275.121C480.359 273.289 481.509 262.092 481.509 262.092C481.509 262.092 482.004 259.324 479.73 258.718C477.455 258.112 474.739 257.699 471.996 256.611C469.307 255.536 467.514 254.93 466.698 254.848C466.698 254.848 466.698 254.848 466.684 254.848ZM470.939 258.993C473.026 259.833 475.06 260.302 476.866 260.715C476.866 260.715 478.485 261.169 478.766 261.238C478.766 261.238 478.833 261.224 478.807 261.693C478.807 261.761 478.793 261.775 478.78 261.858C478.338 266.127 477.549 273.344 477.268 274.584C476.452 278.344 473.04 281.745 470.324 283.921C468.531 285.368 466.791 286.483 465.641 287.172C464.543 286.414 462.924 285.189 461.239 283.646C458.67 281.277 455.485 277.683 454.896 273.923C454.696 272.697 454.308 265.576 454.094 261.376C454.094 261.293 454.094 261.279 454.08 261.211C454.067 261.045 454.094 260.839 454.12 260.701C454.709 260.563 455.338 260.453 455.994 260.315C457.76 259.971 459.767 259.585 461.867 258.828C464.236 257.974 465.908 257.561 466.577 257.437C467.032 257.561 468.183 257.891 470.939 258.993Z" fill="#111733"/>
<path d="M466.55 258.415H466.537C465.921 258.456 464.316 258.883 462.309 259.654C460.288 260.426 458.308 260.673 456.662 261.087C455.017 261.5 455.257 263.635 455.257 263.635C455.257 263.635 455.645 272.27 455.86 273.688C456.876 280.492 465.694 286.153 465.694 286.153C465.694 286.153 474.926 281.112 476.331 274.281C476.625 272.848 477.495 264.103 477.495 264.103C477.495 264.103 477.87 261.94 476.184 261.458C474.511 260.976 472.504 260.66 470.497 259.792C468.517 258.952 467.179 258.47 466.59 258.401C466.564 258.415 466.55 258.415 466.55 258.415Z" fill="#111733"/>
<path d="M466.256 262.836C463.018 262.739 460.315 265.384 460.235 268.717C460.181 270.893 461.252 272.848 462.924 273.95L462.978 278.412C462.978 278.922 463.352 279.363 463.834 279.459C464.008 280.024 464.811 280.478 465.788 280.506C466.764 280.533 467.594 280.134 467.795 279.583C468.33 279.569 468.785 279.129 468.811 278.578L469.079 274.074C470.752 273.055 471.902 271.196 471.956 269.047C472.049 265.714 469.494 262.932 466.256 262.836ZM467.848 278.784C467.848 278.784 467.835 278.798 467.821 278.798L463.928 278.688C463.914 278.688 463.901 278.674 463.901 278.674V278.647L467.875 277.972L467.848 278.784ZM467.928 277.572L463.928 278.247V277.682L467.969 276.994L467.928 277.572ZM467.982 276.608L463.914 277.297V276.732L468.022 276.03L467.982 276.608ZM469.119 269.598L467.273 272.807L467.099 275.548L468.049 275.575V275.644L463.914 276.347L463.901 275.465L464.757 275.493L464.731 272.738L463.045 269.433C463.005 269.35 463.018 269.24 463.085 269.185C463.098 269.171 463.112 269.157 463.125 269.144C463.152 269.13 463.192 269.116 463.232 269.116L468.892 269.267C468.919 269.267 468.932 269.281 468.945 269.281C468.985 269.281 469.012 269.295 469.052 269.309C469.146 269.364 469.186 269.488 469.119 269.598Z" fill="white"/>
<path d="M466.858 272.724C466.858 272.697 466.871 272.656 466.885 272.628L468.089 270.535L468.223 270.3L468.584 269.681L463.553 269.543L463.874 270.19L463.995 270.424L465.092 272.587C465.105 272.614 465.119 272.656 465.119 272.683L465.145 275.506L466.657 275.548L466.858 272.724Z" fill="white"/>
<path d="M449.785 294.347L478.74 294.857" stroke="#111733" stroke-width="0.5669" stroke-miterlimit="10" stroke-linecap="round" stroke-linejoin="round"/>
<path d="M449.169 300.834L475.02 301.344" stroke="#111733" stroke-width="0.5669" stroke-miterlimit="10" stroke-linecap="round" stroke-linejoin="round"/>
<path d="M448.916 308.478L477.87 308.988" stroke="#111733" stroke-width="0.5669" stroke-miterlimit="10" stroke-linecap="round" stroke-linejoin="round"/>
<path d="M448.795 316.122L471.554 315.874" stroke="#111733" stroke-width="0.5669" stroke-miterlimit="10" stroke-linecap="round" stroke-linejoin="round"/>
<path d="M472.919 320.97L470.818 338.406L475.889 335.486L480.586 338.282L478.111 320.584L472.919 320.97Z" fill="#D63A4D"/>
<path d="M481.951 319.179C481.951 322.912 479.021 325.928 475.395 325.928C471.769 325.928 468.838 322.912 468.838 319.179C468.838 315.447 471.769 312.431 475.395 312.431C479.021 312.431 481.951 315.447 481.951 319.179Z" fill="#F94D5C"/>
<path d="M461.399 240.469C461.827 241.392 461.734 242.466 461.787 243.485C461.841 244.504 462.148 245.648 463.018 246.13C464.102 246.722 465.641 245.703 465.56 244.436C465.962 245.331 466.711 246.13 467.648 246.254C468.598 246.378 469.641 245.565 469.534 244.587C469.722 245.413 470.524 246.047 471.341 246.006C472.157 245.978 472.919 245.289 473.053 244.463C473.093 245.441 474.378 246.088 475.154 245.524C475.716 245.124 475.89 244.367 475.997 243.678C476.251 241.957 476.305 240.152 475.689 238.527C475.422 237.839 475.007 237.164 474.351 236.874C473.695 236.585 472.786 236.847 472.572 237.549C471.943 236.737 471.113 236.007 470.123 235.869C469.119 235.745 467.982 236.434 467.915 237.467C467.407 237.26 466.872 237.04 466.323 237.04C465.774 237.04 465.186 237.315 464.958 237.825C464.196 236.723 462.751 236.172 461.466 236.503C460.369 236.792 458.951 238.059 459.178 239.298C460.075 239.161 460.998 239.588 461.399 240.469Z" fill="#EEB399"/>
<path d="M465.56 244.449C465.56 244.449 465.922 241.295 464.945 237.852" stroke="#B7745A" stroke-width="0.2835" stroke-miterlimit="10" stroke-linecap="round" stroke-linejoin="round"/>
<path d="M469.534 244.587C469.534 244.587 469.615 241.295 467.902 237.48" stroke="#B7745A" stroke-width="0.2835" stroke-miterlimit="10" stroke-linecap="round" stroke-linejoin="round"/>
<path d="M473.067 244.463C473.067 244.463 473.548 240.689 472.585 237.563" stroke="#B7745A" stroke-width="0.2835" stroke-miterlimit="10" stroke-linecap="round" stroke-linejoin="round"/>
<path d="M431.949 263.607C430.264 267.202 429.461 271.223 429.635 275.203C429.661 275.892 429.728 276.595 430.036 277.214" stroke="#A81124" stroke-width="0.5669" stroke-miterlimit="10" stroke-linecap="round" stroke-linejoin="round"/>
<path d="M427.454 269.529C426.678 269.694 426.183 270.479 425.821 271.209C424.149 274.487 422.958 278.013 422.262 281.635" stroke="#A81124" stroke-width="0.5669" stroke-miterlimit="10" stroke-linecap="round" stroke-linejoin="round"/>
<path d="M424.483 271.237C422.356 274.047 420.831 277.338 420.068 280.809" stroke="#A81124" stroke-width="0.5669" stroke-miterlimit="10" stroke-linecap="round" stroke-linejoin="round"/>
<path d="M421.848 267.932C419.479 271.113 417.526 274.625 416.067 278.344C415.786 279.074 415.505 279.845 415.559 280.63" stroke="#A81124" stroke-width="0.5669" stroke-miterlimit="10" stroke-linecap="round" stroke-linejoin="round"/>
<path d="M434.224 282.214C434.344 283.963 435.241 285.629 436.605 286.676C437.97 287.723 439.79 288.095 441.449 287.695" stroke="#A81124" stroke-width="0.5669" stroke-miterlimit="10" stroke-linecap="round" stroke-linejoin="round"/>
<path d="M430.879 559.29C430.879 559.29 435.883 571.837 440.513 574.219C445.129 576.602 474.016 585.981 477.348 582.276C480.68 578.571 480.305 575.142 476.064 572.759C471.822 570.377 454.374 560.998 451.551 556.108C448.728 551.219 447.952 549.635 447.952 549.635L430.879 559.29Z" fill="#101214"/>
<path d="M407.771 555.323C407.637 555.723 407.129 565.24 406.353 566.947C405.577 568.669 423.426 578.709 427.922 580.431C432.417 582.152 428.818 587.565 409.818 580.431C390.819 573.297 385.426 578.186 387.487 568.146C389.548 558.105 391.207 551.095 391.207 551.095L407.771 555.323Z" fill="#101214"/>
<path d="M349.929 335.748C349.929 335.748 344.323 362.37 358.038 395.741C371.752 429.098 393.254 482.026 393.254 482.026L384.53 553.877C384.53 553.877 405.095 559.979 412.896 559.331L415.385 535.918L425.982 562.54C425.982 562.54 444.995 557.086 451.538 549.387C451.538 549.387 424.429 467.262 422.556 453.145C422.556 453.145 433.769 362.356 416.95 330.61L349.929 335.748Z" fill="#2B3990"/>
<path d="M405.617 352.881C405.617 352.881 394.94 365.248 421.111 447.98L395.743 368.816C395.743 368.816 393.869 362.769 399.743 357.825C405.617 352.881 405.617 352.881 405.617 352.881Z" fill="#202F77"/>
<path d="M393.08 481.613C393.187 481.861 393.254 482.04 393.254 482.04L389.949 509.268C395.863 515.865 408.628 531.29 414.181 547.225L415.345 536.276L394.86 484.973C394.86 484.959 394.191 483.376 393.08 481.613Z" fill="#202F77"/>
<path d="M422.543 453.159L394.498 364.945C394.498 364.945 384.838 355.966 377.987 356.282" stroke="#4152A5" stroke-width="0.8504" stroke-miterlimit="10" stroke-linecap="round" stroke-linejoin="round"/>
<path d="M395.555 363.348C398.873 358.293 403.128 353.872 408.025 350.429" stroke="#4152A5" stroke-width="0.8504" stroke-miterlimit="10" stroke-linecap="round" stroke-linejoin="round"/>
<path d="M349.381 356.971C349.381 356.971 362.319 359.271 361.637 346.063" stroke="#4152A5" stroke-width="0.8504" stroke-miterlimit="10" stroke-linecap="round" stroke-linejoin="round"/>
<path d="M413.471 338.048C413.471 338.048 416.201 342.854 421.539 343.35" stroke="#4152A5" stroke-width="0.8504" stroke-miterlimit="10" stroke-linecap="round" stroke-linejoin="round"/>
<path d="M393.762 482.177L415.625 536.593" stroke="#4152A5" stroke-width="0.8504" stroke-miterlimit="10" stroke-linecap="round" stroke-linejoin="round"/>
<path d="M349.568 202.774C348.23 204.178 346.384 204.977 345.005 206.341C341.995 209.274 341.915 214.811 344.845 217.841C346.731 219.783 345.327 220.306 344.136 222.152C342.945 223.997 342.209 226.173 342.022 228.391C341.888 229.906 341.982 231.558 341.139 232.825C340.617 233.61 339.801 234.12 339.038 234.657C336.242 236.627 333.9 239.285 332.268 242.328C330.328 245.951 329.391 250.33 330.528 254.297C331.666 258.277 335.198 261.637 339.212 261.706C342.597 261.775 345.594 259.682 348.725 258.373C351.307 257.285 354.091 256.693 356.887 256.638C359.964 256.583 363.095 257.161 366.079 256.376C371.94 254.834 375.632 248.498 381.399 246.639C382.831 246.185 384.329 246.019 385.775 245.634C390.19 244.477 393.829 241.02 395.743 236.819C396.666 234.809 397.509 232.123 397.228 229.864C396.934 227.399 394.699 225.774 394.565 223.198C394.445 220.953 396.224 219.135 397.803 217.565C399.382 215.995 401.001 213.943 400.506 211.74C400.131 210.114 398.713 209.026 397.536 207.883C396.358 206.74 395.274 205.074 395.836 203.517C396.157 202.595 396.974 201.975 397.629 201.259C399.61 199.069 400.078 195.915 400.452 192.954C400.626 191.618 400.787 190.241 400.386 188.96C399.743 186.963 397.857 185.723 396.104 184.649C393.468 183.024 390.779 181.385 387.822 180.517C383.647 179.305 379.192 179.705 374.91 180.503C369.598 181.481 364.366 183.038 359.536 185.503C357.288 186.646 355.094 188.023 353.502 190.006C352.03 191.852 351.348 194 351.455 196.356C351.602 198.766 351.294 200.956 349.568 202.774Z" fill="#15191C"/>
<path d="M354.117 201.052C349.06 203.228 346.33 209.866 348.31 215.128C349.006 216.973 350.17 218.584 351 220.361C351.829 222.138 352.324 224.259 351.575 226.077C350.184 229.479 345.434 230.085 343.614 233.266C342.905 234.506 342.744 235.993 342.102 237.274C340.965 239.546 338.543 240.813 337.031 242.838C335.211 245.303 334.93 248.774 336.041 251.652C337.151 254.531 339.506 256.79 342.236 258.084" stroke="#BAB9B9" stroke-width="0.2835" stroke-miterlimit="10" stroke-linecap="round" stroke-linejoin="round"/>
<path d="M357.449 202.443C355.455 204.289 354.358 207.112 354.545 209.853C354.746 212.814 356.311 215.458 357.449 218.185C358.586 220.912 359.255 224.217 357.756 226.752C356.887 228.225 355.402 229.203 354.398 230.58C353.006 232.481 352.659 235.029 352.94 237.384C353.221 239.753 354.09 241.984 354.933 244.201" stroke="#BAB9B9" stroke-width="0.2835" stroke-miterlimit="10" stroke-linecap="round" stroke-linejoin="round"/>
<path d="M363.042 206.286C360.968 208.31 360.607 211.602 361.075 214.494C361.543 217.386 362.694 220.127 363.216 223.005C363.912 226.931 363.376 231.076 361.69 234.671" stroke="#BAB9B9" stroke-width="0.2835" stroke-miterlimit="10" stroke-linecap="round" stroke-linejoin="round"/>
<path d="M392.625 187.279C394.418 188.629 396.358 190.213 396.652 192.485C396.933 194.648 395.622 196.631 394.685 198.601C393.16 201.823 392.638 205.817 394.391 208.916C395.274 210.486 396.746 211.891 396.706 213.695C396.652 216.408 393.481 217.689 391.889 219.852C390.725 221.435 390.431 223.57 390.738 225.54C391.033 227.509 391.862 229.341 392.745 231.118" stroke="#BAB9B9" stroke-width="0.2835" stroke-miterlimit="10" stroke-linecap="round" stroke-linejoin="round"/>
<path d="M390.444 212.442C389.882 214.343 388.785 216.023 387.982 217.827C386.002 222.276 385.975 227.606 387.915 232.068" stroke="#BAB9B9" stroke-width="0.2835" stroke-miterlimit="10" stroke-linecap="round" stroke-linejoin="round"/>
<path d="M365.624 229.754C365.624 229.754 354.291 234.065 349.3 236.943C344.31 239.836 333.097 244.959 345.246 284.734C357.395 324.509 347.427 337.979 347.427 337.979C347.427 337.979 385.761 368.457 419.733 331.878C416.415 325.749 413.672 319.193 411.424 312.582C409.564 307.114 408.708 301.647 407.464 296.041C406.407 291.276 406.514 285.271 408.587 280.836C411.103 275.465 413.712 270.135 413.699 264.006C413.685 254.682 408.066 245.882 403.878 237.962C401.643 233.734 399.034 229.231 394.659 227.55C393.481 227.096 392.224 226.876 390.979 226.655C382.282 225.126 373.839 226.628 365.624 229.754Z" fill="#F94D5C"/>
<path d="M365.571 320.915C369.585 320.033 373.706 319.592 377.813 319.592C379.366 319.592 380.931 319.661 382.443 319.317C383.955 318.973 385.44 318.174 386.243 316.81C387.073 315.406 387.166 313.464 388.477 312.513C388.946 312.183 389.494 312.017 390.03 311.825C393.174 310.682 395.676 308.244 398.446 306.329C401.028 304.539 406.955 305.062 409.069 303.658C408.815 302.459 408.561 301.275 408.32 300.063C403.142 297.308 386.805 304.732 387.073 306.481C387.367 308.45 387.073 311.632 385.601 313.298C384.129 314.965 376.583 316.48 376.583 316.48C357.85 320.267 351.736 311.026 351.736 311.026C351.348 310.323 351 309.786 350.679 309.373C351.107 313.078 351.294 316.37 351.294 319.276C353.649 321.039 356.539 322.058 359.456 321.975C361.517 321.92 363.537 321.369 365.571 320.915Z" fill="#C42A44"/>
<path d="M364.406 262.12C364.406 262.12 393.856 262.973 411.076 253.608" stroke="white" stroke-miterlimit="10"/>
<path d="M365.236 266.72C365.236 266.72 393.87 267.739 412.562 259.048" stroke="white" stroke-miterlimit="10"/>
<path d="M350.397 306.88C350.397 306.88 351.334 321.314 376.582 316.507C378.001 316.122 379.432 315.736 380.851 315.35C383.139 314.731 385.52 314.703 386.524 312.141C387.835 308.809 386.711 304.14 386.269 300.696C385.855 297.419 385.48 293.783 384.062 290.753C384.062 290.753 379.62 285.946 376.114 289.789C376.114 289.789 370.508 290.753 369.571 290.505C368.635 290.271 366.066 248.402 352.98 240.221" stroke="#A81124" stroke-width="0.5669" stroke-miterlimit="10" stroke-linecap="round" stroke-linejoin="round"/>
<path d="M358.773 293.769C361.811 291.951 365.236 290.822 368.742 290.477" stroke="#A81124" stroke-width="0.5669" stroke-miterlimit="10" stroke-linecap="round" stroke-linejoin="round"/>
<path d="M369.986 290.794C367.564 291.813 365.771 293.934 364.072 295.972" stroke="#A81124" stroke-width="0.5669" stroke-miterlimit="10" stroke-linecap="round" stroke-linejoin="round"/>
<path d="M376.087 289.802C374.87 292.516 374.375 295.559 374.656 298.534" stroke="#A81124" stroke-width="0.5669" stroke-miterlimit="10" stroke-linecap="round" stroke-linejoin="round"/>
<path d="M407.598 282.861C407.598 282.861 414.033 270.3 413.699 264.048C413.378 257.795 409.043 245.895 402.018 235.056" stroke="#A81124" stroke-width="0.5669" stroke-miterlimit="10" stroke-linecap="round" stroke-linejoin="round"/>
<path d="M405.805 289.747C400.908 290.395 396.01 291.083 391.127 291.813C388.718 292.171 386.27 292.763 383.848 292.956C382.175 293.094 380.57 293.094 379.473 294.76C379.192 295.174 379.125 295.697 379.058 296.193C378.83 297.956 378.59 299.98 378.911 301.729C379.272 303.754 380.088 305.655 380.891 307.528C381.052 307.899 381.212 308.271 381.48 308.574C382.216 309.387 383.473 309.304 384.544 309.125C390.123 308.175 395.529 306.15 400.399 303.189C402.045 302.184 403.704 301.11 405.55 300.517C406.059 300.352 408.414 299.719 408.507 300.641C408.628 301.702 408.4 304.58 410.06 304.181C411.21 303.905 412.521 301.95 412.709 300.834C412.789 300.338 412.749 299.829 412.789 299.333C413.03 296.578 415.184 294.154 413.257 291.483C411.652 289.196 408.2 289.43 405.805 289.747Z" fill="#EEB399"/>
<path d="M383.674 314.414C381.653 314.827 379.499 314.497 377.68 313.477C375.873 312.458 374.415 310.778 373.666 308.808" stroke="#A81124" stroke-width="0.5669" stroke-miterlimit="10" stroke-linecap="round" stroke-linejoin="round"/>
<path d="M379.981 292.213C379.981 292.213 376.77 299.677 381.466 308.574" stroke="#A81124" stroke-width="0.5669" stroke-miterlimit="10" stroke-linecap="round" stroke-linejoin="round"/>
<path d="M385.507 213.42L385.654 224.699C385.654 224.699 400.773 246.749 396.371 251.446C391.956 256.142 369.986 234.258 366.494 230.029L365.129 206.699L385.507 213.42Z" fill="#EEB399"/>
<path d="M377.706 217.662C377.706 217.662 380.583 220.003 385.587 220.21L385.52 215.665L377.706 217.662Z" fill="#DB9C83"/>
<path d="M374.241 218.557L383.018 218.488C390.003 218.433 395.662 212.511 395.609 205.321L395.448 182.955C395.395 175.766 389.641 169.94 382.657 169.995L373.88 170.064C366.895 170.119 361.235 176.041 361.289 183.23L361.45 205.597C361.503 212.772 367.256 218.612 374.241 218.557Z" fill="#EEB399"/>
<path d="M389.334 176.124C388.544 178.396 387.808 180.614 385.962 182.349C383.674 184.484 380.476 185.145 377.439 185.682C375.793 185.971 374.12 186.247 372.448 186.15C371.672 186.109 368.942 185.062 368.367 185.806C368.233 185.985 368.247 186.233 368.273 186.453C368.394 187.624 368.407 188.877 367.818 189.91C366.855 191.618 364.688 192.031 362.828 192.513C360.968 192.995 358.84 194.111 358.733 196.08C358.653 197.692 360.005 199.027 360.245 200.625C360.5 202.36 359.135 204.178 357.436 204.371C355.736 204.564 354.037 203.077 353.93 201.327C353.903 200.873 353.97 200.391 353.809 199.964C353.636 199.454 353.194 199.096 352.806 198.724C349.943 195.956 349.568 191.466 349.729 187.431C349.943 181.991 350.919 176.303 354.278 172.088C356.967 168.7 360.901 166.648 364.808 164.927C367.725 163.646 370.735 162.475 373.906 162.241C377.907 161.938 381.894 163.136 385.534 164.858C387.848 165.96 390.096 167.296 391.876 169.169C394.806 172.226 396.037 176.468 396.157 180.682C396.198 181.963 396.117 183.313 395.475 184.415C395.314 181.991 394.445 180.008 393.508 177.832C393.174 177.046 392.812 176.44 392.224 175.807C392.09 175.655 390.136 173.975 390.016 174.278C389.762 174.87 389.548 175.504 389.334 176.124Z" fill="#15191C"/>
<path d="M359.777 201.81C362.373 202.071 364.687 200.129 364.955 197.444C365.209 194.772 363.323 192.389 360.714 192.114C358.118 191.852 355.803 193.794 355.536 196.48C355.281 199.151 357.181 201.534 359.777 201.81Z" fill="#EEB399"/>
<path d="M377.331 194.455C377.265 195.144 376.85 195.667 376.395 195.626C375.94 195.584 375.619 194.992 375.672 194.29C375.739 193.601 376.154 193.078 376.609 193.119C377.064 193.174 377.385 193.766 377.331 194.455Z" fill="#15191C"/>
<path d="M390.377 194.772C390.31 195.46 389.895 195.984 389.44 195.942C388.985 195.901 388.664 195.309 388.718 194.606C388.785 193.918 389.199 193.395 389.654 193.436C390.123 193.477 390.444 194.083 390.377 194.772Z" fill="#15191C"/>
<path d="M386.59 202.719C385.828 202.719 385.065 202.443 384.49 201.947C384.409 201.878 384.396 201.768 384.463 201.686C384.53 201.603 384.637 201.589 384.717 201.658C385.373 202.223 386.296 202.457 387.125 202.292C387.393 202.236 387.741 202.113 387.875 201.823C387.982 201.589 387.928 201.272 387.875 201.011L386.724 194.854C386.711 194.758 386.764 194.648 386.871 194.634C386.965 194.606 387.072 194.675 387.085 194.786L388.236 200.956C388.289 201.245 388.37 201.644 388.196 202.002C387.995 202.429 387.54 202.608 387.192 202.677C387.005 202.705 386.791 202.719 386.59 202.719Z" fill="#B7745A"/>
<path d="M384.343 208.792C381.546 208.792 377.225 208.104 373.679 204.537C373.572 204.426 373.572 204.247 373.679 204.137C373.786 204.027 373.96 204.027 374.067 204.137C379.593 209.687 387.046 207.993 387.126 207.98C387.273 207.938 387.42 208.035 387.46 208.186C387.501 208.338 387.407 208.489 387.26 208.531C387.206 208.531 386.069 208.792 384.343 208.792Z" fill="#723725"/>
<path d="M373.652 189.979C373.465 189.979 373.277 189.896 373.157 189.731C372.929 189.442 372.97 189.029 373.251 188.794C373.438 188.643 377.76 185.035 381.907 187.569C382.215 187.762 382.309 188.161 382.135 188.478C381.948 188.794 381.546 188.891 381.252 188.712C377.88 186.646 374.12 189.786 374.08 189.814C373.946 189.924 373.799 189.979 373.652 189.979Z" fill="#15191C"/>
<path d="M393.869 190.241C393.682 190.241 393.481 190.158 393.361 189.979C391.073 186.963 387.086 188.643 387.045 188.657C386.711 188.794 386.336 188.643 386.202 188.299C386.069 187.954 386.216 187.569 386.55 187.431C388.25 186.701 392.076 186.109 394.378 189.166C394.592 189.456 394.552 189.869 394.271 190.103C394.15 190.199 394.003 190.241 393.869 190.241Z" fill="#15191C"/>
<path d="M357.837 197.416C357.837 197.416 357.77 192.83 362.493 195.02" stroke="#B7745A" stroke-width="0.2835" stroke-miterlimit="10" stroke-linecap="round" stroke-linejoin="round"/>
<path d="M359.309 194.813C359.309 194.813 361.503 196.383 360.901 199.055" stroke="#B7745A" stroke-width="0.2835" stroke-miterlimit="10" stroke-linecap="round" stroke-linejoin="round"/>
<path d="M361.329 203.173C362.342 203.173 363.162 202.328 363.162 201.286C363.162 200.244 362.342 199.399 361.329 199.399C360.317 199.399 359.496 200.244 359.496 201.286C359.496 202.328 360.317 203.173 361.329 203.173Z" fill="white"/>
<path d="M387.701 166.373C386.537 167.943 386.604 170.105 386.337 172.061C386.096 173.865 385.467 175.697 384.129 176.895C382.831 178.052 381.051 178.451 379.339 178.424C377.626 178.396 375.954 177.969 374.268 177.68C371.766 177.239 369.143 177.088 366.708 177.845C364.273 178.617 362.052 180.448 361.329 182.969C361.048 183.96 360.995 184.993 360.727 185.985C360.125 188.271 358.372 190.199 356.178 190.943C355.469 191.191 354.706 191.315 354.024 191.645C352.204 192.541 351.388 194.262 351.08 196.3" stroke="#BAB9B9" stroke-width="0.2835" stroke-miterlimit="10" stroke-linecap="round" stroke-linejoin="round"/>
<path d="M384.972 164.94C384.263 165.533 384.048 166.552 383.487 167.282C382.389 168.7 380.329 168.673 378.576 168.466C375.458 168.108 372.328 167.612 369.21 167.984C366.092 168.342 362.935 169.692 361.115 172.309C360.045 173.851 359.469 175.752 358.118 177.033C356.833 178.245 355.04 178.685 353.448 179.429C351.856 180.173 350.264 181.523 350.224 183.313" stroke="#BAB9B9" stroke-width="0.2835" stroke-miterlimit="10" stroke-linecap="round" stroke-linejoin="round"/>
<defs>
<linearGradient id="paint0_linear" x1="110.937" y1="544.177" x2="429.11" y2="544.177" gradientUnits="userSpaceOnUse">
<stop stop-color="#754C29"/>
<stop offset="1" stop-color="#5E3D24"/>
</linearGradient>
<linearGradient id="paint1_linear" x1="110.937" y1="527.94" x2="429.11" y2="527.94" gradientUnits="userSpaceOnUse">
<stop stop-color="#A97C50"/>
<stop offset="1" stop-color="#B57F4E"/>
</linearGradient>
<linearGradient id="paint2_linear" x1="122.03" y1="490.264" x2="418.553" y2="490.264" gradientUnits="userSpaceOnUse">
<stop stop-color="#754C29"/>
<stop offset="1" stop-color="#5E3D24"/>
</linearGradient>
<linearGradient id="paint3_linear" x1="122.03" y1="449.709" x2="418.553" y2="449.709" gradientUnits="userSpaceOnUse">
<stop stop-color="#FBB040"/>
<stop offset="1" stop-color="#E0922B"/>
</linearGradient>
<linearGradient id="paint4_linear" x1="122.03" y1="440.295" x2="418.553" y2="440.295" gradientUnits="userSpaceOnUse">
<stop stop-color="#A97C50"/>
<stop offset="1" stop-color="#B57F4E"/>
</linearGradient>
<linearGradient id="paint5_linear" x1="171.366" y1="451.823" x2="171.366" y2="538.152" gradientUnits="userSpaceOnUse">
<stop stop-color="white" stop-opacity="0"/>
<stop offset="1" stop-color="white"/>
</linearGradient>
<linearGradient id="paint6_linear" x1="181.069" y1="531.626" x2="181.069" y2="546.222" gradientUnits="userSpaceOnUse">
<stop stop-color="white" stop-opacity="0"/>
<stop offset="1" stop-color="white"/>
</linearGradient>
<linearGradient id="paint7_linear" x1="223.496" y1="444.387" x2="223.496" y2="447.917" gradientUnits="userSpaceOnUse">
<stop stop-color="white" stop-opacity="0"/>
<stop offset="1" stop-color="white"/>
</linearGradient>
<linearGradient id="paint8_linear" x1="595.768" y1="475.611" x2="334.954" y2="344.28" gradientUnits="userSpaceOnUse">
<stop stop-color="#754C29"/>
<stop offset="1" stop-color="#5E3D24"/>
</linearGradient>
<linearGradient id="paint9_linear" x1="595.705" y1="475.659" x2="334.891" y2="344.329" gradientUnits="userSpaceOnUse">
<stop stop-color="#754C29"/>
<stop offset="1" stop-color="#5E3D24"/>
</linearGradient>
<linearGradient id="paint10_linear" x1="594.379" y1="478.293" x2="333.566" y2="346.963" gradientUnits="userSpaceOnUse">
<stop stop-color="white" stop-opacity="0"/>
<stop offset="1" stop-color="#808285"/>
</linearGradient>
<linearGradient id="paint11_linear" x1="148.923" y1="438.181" x2="273.315" y2="438.181" gradientUnits="userSpaceOnUse">
<stop stop-color="white" stop-opacity="0"/>
<stop offset="1" stop-color="#58595B"/>
</linearGradient>
<linearGradient id="paint12_linear" x1="218.389" y1="298.785" x2="350.024" y2="322.101" gradientUnits="userSpaceOnUse">
<stop stop-color="#754C29"/>
<stop offset="1" stop-color="#5E3D24"/>
</linearGradient>
<linearGradient id="paint13_linear" x1="209.941" y1="306.366" x2="359.756" y2="306.366" gradientUnits="userSpaceOnUse">
<stop stop-color="#FBB040"/>
<stop offset="1" stop-color="#E0922B"/>
</linearGradient>
<linearGradient id="paint14_linear" x1="259.935" y1="209.628" x2="233.146" y2="388.922" gradientUnits="userSpaceOnUse">
<stop stop-color="white" stop-opacity="0"/>
<stop offset="1" stop-color="white"/>
</linearGradient>
</defs>
</svg>
