<svg width="280" height="100" viewBox="0 0 280 100" fill="none" xmlns="http://www.w3.org/2000/svg">
<rect width="280" height="100" rx="20" fill="#333333"/>
<path d="M73.4421 51.1617C73.4192 47.2589 75.1874 44.3176 78.7582 42.1488C76.7611 39.2876 73.7396 37.7139 69.7568 37.4106C65.9857 37.113 61.8598 39.608 60.3491 39.608C58.7525 39.608 55.1016 37.5136 52.2289 37.5136C46.3004 37.6052 40 42.2403 40 51.671C40 54.4578 40.5093 57.3362 41.5279 60.3004C42.8898 64.2031 47.7997 73.7654 52.9213 73.6109C55.5994 73.5479 57.4936 71.711 60.9785 71.711C64.3605 71.711 66.1116 73.6109 69.0987 73.6109C74.2661 73.5365 78.7067 64.8441 80 60.9299C73.0701 57.6624 73.4421 51.3619 73.4421 51.1617ZM67.4278 33.7082C70.329 30.2632 70.0658 27.1273 69.98 26C67.4163 26.1488 64.4521 27.7454 62.7639 29.7082C60.9041 31.814 59.8112 34.4177 60.0458 37.3534C62.8154 37.5651 65.3448 36.1402 67.4278 33.7082Z" fill="white"/>
<path d="M114.592 21.816C115.829 21.816 116.891 22.04 117.776 22.488C118.661 22.936 119.339 23.5813 119.808 24.424C120.277 25.2667 120.512 26.2693 120.512 27.432C120.512 28.584 120.277 29.5813 119.808 30.424C119.339 31.256 118.661 31.896 117.776 32.344C116.891 32.7813 115.829 33 114.592 33H111.28V21.816H114.592ZM114.592 32.072C116.149 32.072 117.333 31.6667 118.144 30.856C118.965 30.0347 119.376 28.8933 119.376 27.432C119.376 25.96 118.965 24.8133 118.144 23.992C117.333 23.16 116.149 22.744 114.592 22.744H112.4V32.072H114.592ZM126.401 33.128C125.58 33.128 124.838 32.9467 124.177 32.584C123.526 32.2107 123.009 31.688 122.625 31.016C122.252 30.3333 122.065 29.5387 122.065 28.632C122.065 27.7253 122.257 26.936 122.641 26.264C123.025 25.5813 123.548 25.0587 124.209 24.696C124.87 24.3227 125.612 24.136 126.433 24.136C127.254 24.136 127.996 24.3227 128.657 24.696C129.329 25.0587 129.852 25.5813 130.225 26.264C130.609 26.936 130.801 27.7253 130.801 28.632C130.801 29.528 130.609 30.3173 130.225 31C129.841 31.6827 129.313 32.2107 128.641 32.584C127.969 32.9467 127.222 33.128 126.401 33.128ZM126.401 32.152C126.977 32.152 127.51 32.024 128.001 31.768C128.492 31.5013 128.886 31.1067 129.185 30.584C129.494 30.0507 129.649 29.4 129.649 28.632C129.649 27.864 129.5 27.2187 129.201 26.696C128.902 26.1627 128.508 25.768 128.017 25.512C127.526 25.2453 126.993 25.112 126.417 25.112C125.841 25.112 125.308 25.2453 124.817 25.512C124.326 25.768 123.932 26.1627 123.633 26.696C123.345 27.2187 123.201 27.864 123.201 28.632C123.201 29.4 123.345 30.0507 123.633 30.584C123.932 31.1067 124.321 31.5013 124.801 31.768C125.292 32.024 125.825 32.152 126.401 32.152ZM144.363 24.264L141.627 33H140.507L138.091 25.672L135.674 33H134.539L131.803 24.264H132.939L135.115 31.864L137.563 24.264H138.683L141.099 31.88L143.259 24.264H144.363ZM149.985 24.104C151.031 24.104 151.884 24.4293 152.545 25.08C153.207 25.72 153.537 26.6533 153.537 27.88V33H152.433V28.008C152.433 27.0587 152.193 26.3333 151.713 25.832C151.244 25.3307 150.599 25.08 149.777 25.08C148.935 25.08 148.263 25.3467 147.761 25.88C147.26 26.4133 147.009 27.1973 147.009 28.232V33H145.889V24.264H147.009V25.752C147.287 25.2187 147.687 24.8133 148.209 24.536C148.732 24.248 149.324 24.104 149.985 24.104ZM157.134 21.16V33H156.014V21.16H157.134ZM163.495 33.128C162.673 33.128 161.932 32.9467 161.271 32.584C160.62 32.2107 160.103 31.688 159.719 31.016C159.345 30.3333 159.159 29.5387 159.159 28.632C159.159 27.7253 159.351 26.936 159.735 26.264C160.119 25.5813 160.641 25.0587 161.303 24.696C161.964 24.3227 162.705 24.136 163.527 24.136C164.348 24.136 165.089 24.3227 165.751 24.696C166.423 25.0587 166.945 25.5813 167.319 26.264C167.703 26.936 167.895 27.7253 167.895 28.632C167.895 29.528 167.703 30.3173 167.319 31C166.935 31.6827 166.407 32.2107 165.735 32.584C165.063 32.9467 164.316 33.128 163.495 33.128ZM163.495 32.152C164.071 32.152 164.604 32.024 165.095 31.768C165.585 31.5013 165.98 31.1067 166.279 30.584C166.588 30.0507 166.743 29.4 166.743 28.632C166.743 27.864 166.593 27.2187 166.295 26.696C165.996 26.1627 165.601 25.768 165.111 25.512C164.62 25.2453 164.087 25.112 163.511 25.112C162.935 25.112 162.401 25.2453 161.911 25.512C161.42 25.768 161.025 26.1627 160.727 26.696C160.439 27.2187 160.295 27.864 160.295 28.632C160.295 29.4 160.439 30.0507 160.727 30.584C161.025 31.1067 161.415 31.5013 161.895 31.768C162.385 32.024 162.919 32.152 163.495 32.152ZM169.424 28.616C169.424 27.72 169.6 26.936 169.952 26.264C170.315 25.5813 170.811 25.0587 171.44 24.696C172.08 24.3227 172.8 24.136 173.6 24.136C174.432 24.136 175.147 24.328 175.744 24.712C176.352 25.096 176.79 25.5867 177.056 26.184V24.264H178.176V33H177.056V31.064C176.779 31.6613 176.336 32.1573 175.728 32.552C175.131 32.936 174.416 33.128 173.584 33.128C172.795 33.128 172.08 32.9413 171.44 32.568C170.811 32.1947 170.315 31.6667 169.952 30.984C169.6 30.3013 169.424 29.512 169.424 28.616ZM177.056 28.632C177.056 27.928 176.912 27.3093 176.624 26.776C176.336 26.2427 175.942 25.832 175.44 25.544C174.95 25.256 174.406 25.112 173.808 25.112C173.19 25.112 172.635 25.2507 172.144 25.528C171.654 25.8053 171.264 26.2107 170.976 26.744C170.699 27.2667 170.56 27.8907 170.56 28.616C170.56 29.3307 170.699 29.96 170.976 30.504C171.264 31.0373 171.654 31.448 172.144 31.736C172.635 32.0133 173.19 32.152 173.808 32.152C174.406 32.152 174.95 32.008 175.44 31.72C175.942 31.432 176.336 31.0213 176.624 30.488C176.912 29.9547 177.056 29.336 177.056 28.632ZM180.221 28.616C180.221 27.72 180.402 26.936 180.765 26.264C181.128 25.5813 181.624 25.0587 182.253 24.696C182.893 24.3227 183.613 24.136 184.413 24.136C185.181 24.136 185.874 24.3227 186.493 24.696C187.112 25.0693 187.565 25.5547 187.853 26.152V21.16H188.973V33H187.853V31.048C187.586 31.656 187.149 32.1573 186.541 32.552C185.933 32.936 185.218 33.128 184.397 33.128C183.597 33.128 182.877 32.9413 182.237 32.568C181.608 32.1947 181.112 31.6667 180.749 30.984C180.397 30.3013 180.221 29.512 180.221 28.616ZM187.853 28.632C187.853 27.928 187.709 27.3093 187.421 26.776C187.133 26.2427 186.738 25.832 186.237 25.544C185.746 25.256 185.202 25.112 184.605 25.112C183.986 25.112 183.432 25.2507 182.941 25.528C182.45 25.8053 182.061 26.2107 181.773 26.744C181.496 27.2667 181.357 27.8907 181.357 28.616C181.357 29.3307 181.496 29.96 181.773 30.504C182.061 31.0373 182.45 31.448 182.941 31.736C183.432 32.0133 183.986 32.152 184.605 32.152C185.202 32.152 185.746 32.008 186.237 31.72C186.738 31.432 187.133 31.0213 187.421 30.488C187.709 29.9547 187.853 29.336 187.853 28.632ZM199.745 33.128C198.923 33.128 198.182 32.9467 197.521 32.584C196.87 32.2107 196.353 31.688 195.969 31.016C195.595 30.3333 195.409 29.5387 195.409 28.632C195.409 27.7253 195.601 26.936 195.985 26.264C196.369 25.5813 196.891 25.0587 197.553 24.696C198.214 24.3227 198.955 24.136 199.777 24.136C200.598 24.136 201.339 24.3227 202.001 24.696C202.673 25.0587 203.195 25.5813 203.569 26.264C203.953 26.936 204.145 27.7253 204.145 28.632C204.145 29.528 203.953 30.3173 203.569 31C203.185 31.6827 202.657 32.2107 201.985 32.584C201.313 32.9467 200.566 33.128 199.745 33.128ZM199.745 32.152C200.321 32.152 200.854 32.024 201.345 31.768C201.835 31.5013 202.23 31.1067 202.529 30.584C202.838 30.0507 202.993 29.4 202.993 28.632C202.993 27.864 202.843 27.2187 202.545 26.696C202.246 26.1627 201.851 25.768 201.361 25.512C200.87 25.2453 200.337 25.112 199.761 25.112C199.185 25.112 198.651 25.2453 198.161 25.512C197.67 25.768 197.275 26.1627 196.977 26.696C196.689 27.2187 196.545 27.864 196.545 28.632C196.545 29.4 196.689 30.0507 196.977 30.584C197.275 31.1067 197.665 31.5013 198.145 31.768C198.635 32.024 199.169 32.152 199.745 32.152ZM210.282 24.104C211.328 24.104 212.181 24.4293 212.842 25.08C213.504 25.72 213.834 26.6533 213.834 27.88V33H212.73V28.008C212.73 27.0587 212.49 26.3333 212.01 25.832C211.541 25.3307 210.896 25.08 210.074 25.08C209.232 25.08 208.56 25.3467 208.058 25.88C207.557 26.4133 207.306 27.1973 207.306 28.232V33H206.186V24.264H207.306V25.752C207.584 25.2187 207.984 24.8133 208.506 24.536C209.029 24.248 209.621 24.104 210.282 24.104ZM222.158 25.208V30.632C222.158 31.1653 222.259 31.5333 222.462 31.736C222.665 31.9387 223.022 32.04 223.534 32.04H224.558V33H223.358C222.569 33 221.982 32.8187 221.598 32.456C221.214 32.0827 221.022 31.4747 221.022 30.632V25.208H219.806V24.264H221.022V22.072H222.158V24.264H224.558V25.208H222.158ZM230.565 24.104C231.226 24.104 231.818 24.2427 232.341 24.52C232.874 24.7973 233.29 25.224 233.589 25.8C233.898 26.3653 234.053 27.0587 234.053 27.88V33H232.949V28.008C232.949 27.0587 232.709 26.3333 232.229 25.832C231.76 25.3307 231.114 25.08 230.293 25.08C229.45 25.08 228.778 25.3467 228.277 25.88C227.776 26.4133 227.525 27.1973 227.525 28.232V33H226.405V21.16H227.525V25.752C227.802 25.2293 228.208 24.824 228.741 24.536C229.285 24.248 229.893 24.104 230.565 24.104ZM244.434 28.184C244.434 28.568 244.423 28.8613 244.402 29.064H237.154C237.186 29.7253 237.346 30.2907 237.634 30.76C237.922 31.2293 238.301 31.5867 238.77 31.832C239.239 32.0667 239.751 32.184 240.306 32.184C241.031 32.184 241.639 32.008 242.13 31.656C242.631 31.304 242.962 30.8293 243.122 30.232H244.306C244.093 31.0853 243.634 31.784 242.93 32.328C242.237 32.8613 241.362 33.128 240.306 33.128C239.485 33.128 238.749 32.9467 238.098 32.584C237.447 32.2107 236.935 31.688 236.562 31.016C236.199 30.3333 236.018 29.5387 236.018 28.632C236.018 27.7253 236.199 26.9307 236.562 26.248C236.925 25.5653 237.431 25.0427 238.082 24.68C238.733 24.3173 239.474 24.136 240.306 24.136C241.138 24.136 241.863 24.3173 242.482 24.68C243.111 25.0427 243.591 25.5333 243.922 26.152C244.263 26.76 244.434 27.4373 244.434 28.184ZM243.298 28.152C243.309 27.5013 243.175 26.9467 242.898 26.488C242.631 26.0293 242.263 25.6827 241.794 25.448C241.325 25.2133 240.813 25.096 240.258 25.096C239.426 25.096 238.717 25.3627 238.13 25.896C237.543 26.4293 237.218 27.1813 237.154 28.152H243.298Z" fill="white"/>
<path d="M121.976 72.024H115.688L114.68 75H110.384L116.48 58.152H121.232L127.328 75H122.984L121.976 72.024ZM120.92 68.856L118.832 62.688L116.768 68.856H120.92ZM133.287 63.504C133.687 62.88 134.239 62.376 134.943 61.992C135.647 61.608 136.471 61.416 137.415 61.416C138.519 61.416 139.519 61.696 140.415 62.256C141.311 62.816 142.015 63.616 142.527 64.656C143.055 65.696 143.319 66.904 143.319 68.28C143.319 69.656 143.055 70.872 142.527 71.928C142.015 72.968 141.311 73.776 140.415 74.352C139.519 74.912 138.519 75.192 137.415 75.192C136.487 75.192 135.663 75 134.943 74.616C134.239 74.232 133.687 73.736 133.287 73.128V81.384H129.183V61.608H133.287V63.504ZM139.143 68.28C139.143 67.256 138.855 66.456 138.279 65.88C137.719 65.288 137.023 64.992 136.191 64.992C135.375 64.992 134.679 65.288 134.103 65.88C133.543 66.472 133.263 67.28 133.263 68.304C133.263 69.328 133.543 70.136 134.103 70.728C134.679 71.32 135.375 71.616 136.191 71.616C137.007 71.616 137.703 71.32 138.279 70.728C138.855 70.12 139.143 69.304 139.143 68.28ZM149.576 63.504C149.976 62.88 150.528 62.376 151.232 61.992C151.936 61.608 152.76 61.416 153.704 61.416C154.808 61.416 155.808 61.696 156.704 62.256C157.6 62.816 158.304 63.616 158.816 64.656C159.344 65.696 159.608 66.904 159.608 68.28C159.608 69.656 159.344 70.872 158.816 71.928C158.304 72.968 157.6 73.776 156.704 74.352C155.808 74.912 154.808 75.192 153.704 75.192C152.776 75.192 151.952 75 151.232 74.616C150.528 74.232 149.976 73.736 149.576 73.128V81.384H145.472V61.608H149.576V63.504ZM155.432 68.28C155.432 67.256 155.144 66.456 154.568 65.88C154.008 65.288 153.312 64.992 152.48 64.992C151.664 64.992 150.968 65.288 150.392 65.88C149.832 66.472 149.552 67.28 149.552 68.304C149.552 69.328 149.832 70.136 150.392 70.728C150.968 71.32 151.664 71.616 152.48 71.616C153.296 71.616 153.992 71.32 154.568 70.728C155.144 70.12 155.432 69.304 155.432 68.28ZM172.943 75.168C171.711 75.168 170.607 74.968 169.631 74.568C168.655 74.168 167.871 73.576 167.279 72.792C166.703 72.008 166.399 71.064 166.367 69.96H170.735C170.799 70.584 171.015 71.064 171.383 71.4C171.751 71.72 172.231 71.88 172.823 71.88C173.431 71.88 173.911 71.744 174.263 71.472C174.615 71.184 174.791 70.792 174.791 70.296C174.791 69.88 174.647 69.536 174.359 69.264C174.087 68.992 173.743 68.768 173.327 68.592C172.927 68.416 172.351 68.216 171.599 67.992C170.511 67.656 169.623 67.32 168.935 66.984C168.247 66.648 167.655 66.152 167.159 65.496C166.663 64.84 166.415 63.984 166.415 62.928C166.415 61.36 166.983 60.136 168.119 59.256C169.255 58.36 170.735 57.912 172.559 57.912C174.415 57.912 175.911 58.36 177.047 59.256C178.183 60.136 178.791 61.368 178.871 62.952H174.431C174.399 62.408 174.199 61.984 173.831 61.68C173.463 61.36 172.991 61.2 172.415 61.2C171.919 61.2 171.519 61.336 171.215 61.608C170.911 61.864 170.759 62.24 170.759 62.736C170.759 63.28 171.015 63.704 171.527 64.008C172.039 64.312 172.839 64.64 173.927 64.992C175.015 65.36 175.895 65.712 176.567 66.048C177.255 66.384 177.847 66.872 178.343 67.512C178.839 68.152 179.087 68.976 179.087 69.984C179.087 70.944 178.839 71.816 178.343 72.6C177.863 73.384 177.159 74.008 176.231 74.472C175.303 74.936 174.207 75.168 172.943 75.168ZM189.077 71.52V75H186.989C185.501 75 184.341 74.64 183.509 73.92C182.677 73.184 182.261 71.992 182.261 70.344V65.016H180.629V61.608H182.261V58.344H186.365V61.608H189.053V65.016H186.365V70.392C186.365 70.792 186.461 71.08 186.653 71.256C186.845 71.432 187.165 71.52 187.613 71.52H189.077ZM197.459 75.192C196.147 75.192 194.963 74.912 193.907 74.352C192.867 73.792 192.043 72.992 191.435 71.952C190.843 70.912 190.547 69.696 190.547 68.304C190.547 66.928 190.851 65.72 191.459 64.68C192.067 63.624 192.899 62.816 193.955 62.256C195.011 61.696 196.195 61.416 197.507 61.416C198.819 61.416 200.003 61.696 201.059 62.256C202.115 62.816 202.947 63.624 203.555 64.68C204.163 65.72 204.467 66.928 204.467 68.304C204.467 69.68 204.155 70.896 203.531 71.952C202.923 72.992 202.083 73.792 201.011 74.352C199.955 74.912 198.771 75.192 197.459 75.192ZM197.459 71.64C198.243 71.64 198.907 71.352 199.451 70.776C200.011 70.2 200.291 69.376 200.291 68.304C200.291 67.232 200.019 66.408 199.475 65.832C198.947 65.256 198.291 64.968 197.507 64.968C196.707 64.968 196.043 65.256 195.515 65.832C194.987 66.392 194.723 67.216 194.723 68.304C194.723 69.376 194.979 70.2 195.491 70.776C196.019 71.352 196.675 71.64 197.459 71.64ZM210.748 63.84C211.228 63.104 211.828 62.528 212.548 62.112C213.268 61.68 214.068 61.464 214.948 61.464V65.808H213.82C212.796 65.808 212.028 66.032 211.516 66.48C211.004 66.912 210.748 67.68 210.748 68.784V75H206.644V61.608H210.748V63.84ZM229.534 68.088C229.534 68.472 229.51 68.872 229.462 69.288H220.174C220.238 70.12 220.502 70.76 220.966 71.208C221.446 71.64 222.03 71.856 222.718 71.856C223.742 71.856 224.454 71.424 224.854 70.56H229.222C228.998 71.44 228.59 72.232 227.998 72.936C227.422 73.64 226.694 74.192 225.814 74.592C224.934 74.992 223.95 75.192 222.862 75.192C221.55 75.192 220.382 74.912 219.358 74.352C218.334 73.792 217.534 72.992 216.958 71.952C216.382 70.912 216.094 69.696 216.094 68.304C216.094 66.912 216.374 65.696 216.934 64.656C217.51 63.616 218.31 62.816 219.334 62.256C220.358 61.696 221.534 61.416 222.862 61.416C224.158 61.416 225.31 61.688 226.318 62.232C227.326 62.776 228.11 63.552 228.67 64.56C229.246 65.568 229.534 66.744 229.534 68.088ZM225.334 67.008C225.334 66.304 225.094 65.744 224.614 65.328C224.134 64.912 223.534 64.704 222.814 64.704C222.126 64.704 221.542 64.904 221.062 65.304C220.598 65.704 220.31 66.272 220.198 67.008H225.334Z" fill="white"/>
</svg>
